<svg width="16" height="16" viewBox="0 0 16 16" fill="none" xmlns="http://www.w3.org/2000/svg">
<path d="M13.3335 7.33333C14.0699 7.33333 14.6668 6.73638 14.6668 6V3.33333C14.6668 2.59695 14.0699 2 13.3335 2H11.3335C10.5971 2 10.0002 2.59695 10.0002 3.33333V4H6.00016V3.33333C6.00016 2.59695 5.40321 2 4.66683 2H2.66683C1.93045 2 1.3335 2.59695 1.3335 3.33333V6C1.3335 6.73638 1.93045 7.33333 2.66683 7.33333H4.66683C5.40321 7.33333 6.00016 6.73638 6.00016 6V5.33333H7.3335V10C7.3335 11.1046 8.22893 12 9.3335 12H10.0002V12.6667C10.0002 13.403 10.5971 14 11.3335 14H13.3335C14.0699 14 14.6668 13.403 14.6668 12.6667V10C14.6668 9.26362 14.0699 8.66667 13.3335 8.66667H11.3335C10.5971 8.66667 10.0002 9.26362 10.0002 10V10.6667H9.3335C8.96531 10.6667 8.66683 10.3682 8.66683 10V5.33333H10.0002V6C10.0002 6.73638 10.5971 7.33333 11.3335 7.33333H13.3335ZM4.66683 6H2.66683V3.33333H4.66683V6ZM11.3335 10H13.3335V12.6667H11.3335V10ZM11.3335 3.33333H13.3335V6H11.3335V3.33333Z" fill="#FFFFFF"
"/>
</svg>
