<svg width="30" height="30" viewBox="0 0 30 30" fill="none" xmlns="http://www.w3.org/2000/svg">
<path d="M29.9985 22.4166C29.9985 22.5808 29.9935 22.9371 29.9836 23.2123C29.9595 23.8856 29.9061 24.7544 29.8254 25.1503C29.704 25.7452 29.5209 26.3067 29.2821 26.7741C28.9996 27.3269 28.6393 27.8222 28.2111 28.2496C27.7838 28.6761 27.289 29.0351 26.737 29.3164C26.2672 29.5559 25.7021 29.7391 25.1038 29.8599C24.7119 29.939 23.8496 29.9914 23.1805 30.0151C22.9051 30.025 22.5488 30.0299 22.3851 30.0299L7.61277 30.0276C7.4485 30.0276 7.09231 30.0225 6.81712 30.0127C6.14378 29.9885 5.27495 29.9351 4.87906 29.8545C4.28415 29.7331 3.72261 29.55 3.25526 29.3112C2.70237 29.0287 2.20716 28.6683 1.77975 28.2401C1.35318 27.8129 0.994231 27.3181 0.712891 26.7661C0.473417 26.2963 0.290193 25.7312 0.169401 25.133C0.0902985 24.741 0.0379446 23.8787 0.0141261 23.2097C0.00434086 22.9342 -0.000610352 22.5779 -0.000610352 22.4143L0.00173342 7.642C0.00173342 7.47774 0.00674322 7.12152 0.0166163 6.84633C0.0407865 6.173 0.0941365 5.30417 0.17485 4.90831C0.296169 4.31341 0.479276 3.75188 0.718077 3.28451C1.00059 2.73164 1.36097 2.23641 1.78915 1.809C2.21642 1.38246 2.71119 1.02349 3.26323 0.742123C3.73307 0.502709 4.29812 0.319486 4.8964 0.198695C5.28831 0.119564 6.15067 0.0672107 6.8197 0.0434216C7.09515 0.0336072 7.45149 0.028656 7.61508 0.028656L22.3875 0.0310291C22.5518 0.0310291 22.908 0.0360388 23.1832 0.0459119C23.8565 0.0700818 24.7253 0.123431 25.1212 0.204144C25.7161 0.325463 26.2776 0.508568 26.745 0.747367C27.2979 1.02988 27.7931 1.39026 28.2205 1.81843C28.647 2.2457 29.006 2.74043 29.2874 3.2925C29.5268 3.76234 29.71 4.32736 29.8308 4.92563C29.9099 5.31756 29.9623 6.17989 29.9861 6.84894C29.9959 7.12439 30.0009 7.4807 30.0009 7.64435L29.9985 22.4166Z" fill="url(#paint0_linear_2919_10425)"/>
<defs>
<linearGradient id="paint0_linear_2919_10425" x1="15.0001" y1="0.028656" x2="15.0001" y2="30.03" gradientUnits="userSpaceOnUse">
<stop stop-color="#61FD7D"/>
<stop offset="1" stop-color="#2BB826"/>
</linearGradient>
</defs>
</svg>
